<?xml version="1.0" encoding="UTF-8"?>
<!-- Generator: Adobe Illustrator 26.3.1, SVG Export Plug-In . SVG Version: 6.00 Build 0)  -->
<svg version="1.1" id="Layer_1" xmlns="http://www.w3.org/2000/svg" xmlns:xlink="http://www.w3.org/1999/xlink" x="0px" y="0px" viewBox="0 0 1000 350" style="enable-background:new 0 0 1000 350;" xml:space="preserve">
<style type="text/css">
	.st0{clip-path:url(#SVGID_00000165216224003797371820000018092742364143774135_);}
	.st1{clip-path:url(#SVGID_00000093865147407686643210000005323054921588658357_);}
	.st2{fill:#FFFFFF;}
	.st3{fill:#08547A;}
	.st4{fill:#E22B4C;}
	.st5{fill:#4B4B4B;}
</style>
<g>
	<g>
		<defs>
			<line id="SVGID_1_" x1="999" y1="349.3" x2="1" y2="349.3"/>
		</defs>
		<clipPath id="SVGID_00000114796096946792714830000011687128975681189308_">
			<use xlink:href="#SVGID_1_" style="overflow:visible;"/>
		</clipPath>
	</g>
	<g>
		<defs>
			<line id="SVGID_00000109708795702896521730000013542510351389099444_" x1="999" y1="349.3" x2="1" y2="349.3"/>
		</defs>
		<defs>
			<line id="SVGID_00000142857633539643793620000005444105247662489780_" x1="1" y1="0" x2="999" y2="0"/>
		</defs>
		<clipPath id="SVGID_00000175296481218593095900000000554580813869345206_">
			<use xlink:href="#SVGID_00000109708795702896521730000013542510351389099444_" style="overflow:visible;"/>
		</clipPath>
		
			<clipPath id="SVGID_00000183228119840811551900000015703562577069961111_" style="clip-path:url(#SVGID_00000175296481218593095900000000554580813869345206_);">
			<use xlink:href="#SVGID_00000142857633539643793620000005444105247662489780_" style="overflow:visible;"/>
		</clipPath>
		<g style="clip-path:url(#SVGID_00000183228119840811551900000015703562577069961111_);">
			<path class="st2" d="M999,359.3H1"/>
			<path class="st2" d="M1,0h998"/>
			<path class="st2" d="M999,349.3H1"/>
			<path class="st2" d="M1,0h998"/>
		</g>
	</g>
</g>
<path class="st3" d="M25.6,198.9h321.6v7.6H25.6V198.9z"/>
<path class="st3" d="M398.1,198.7h588.3v7.8H398.1V198.7z"/>
<path class="st3" d="M37.8,50.7H25V28.5h56.6c42.8,0,70.9,25.9,70.9,70.7c0,44.7-28,71-70.9,71H51c-9.4,0-13.3-4.1-13.3-13.6  L37.8,50.7L37.8,50.7z M67.7,148.2h12.5c27.7,0,45.7-17,45.7-48.9c0-31.5-18.2-48.5-45.7-48.5H63.5v93  C63.5,146.6,65,148.2,67.7,148.2z"/>
<path class="st3" d="M418.2,66.1c-24.4,0-33.2,16-33.2,16h-0.4v-3.9c0-5.6-3.4-9.7-13.1-9.7h-23.2V90h8.2c2.8,0,4.6,1.4,4.6,4.4v115  h25.8v-41.8c0-2.9-0.1-5.8-0.4-8.7h0.4c0,0,9.2,13.3,30,13.3c27.4,0,48-20.9,48-53C464.7,87.7,446.4,66.1,418.2,66.1z M412,150.8  c-17.2,0-25.7-15.5-25.7-31.2c0-22.4,12.7-31.9,26.2-31.9c15.4,0,26,12.6,26,31.8C438.4,139.5,426.3,150.8,412,150.8z"/>
<path class="st3" d="M556,144v-37.7c0-22.6-10.2-40.2-45.1-40.2c-10.8,0-38.4,2-38.4,20.9v10.7h24.1v-5.4c0-5.6,9.2-6.7,14-6.7  c13.3,0,19.2,5.4,19.2,19.9v0.7h-3.3c-17,0-62.1,2.6-62.1,34.2c0,20.3,17,31.5,35.6,31.5c23.6,0,31.5-17.9,31.5-17.9h0.4  c-0.2,1.4-0.2,2.9-0.2,4.4c0,6,3.8,11,13.3,11h23.3v-21.3h-8.2C557.7,148.4,556,146.8,556,144z M530.5,125.8  c0,12.3-9.8,26.5-23.8,26.5c-10.6,0-15.8-6.4-15.8-13.1c0-14.1,21.6-15.9,35-15.9h4.6V125.8z"/>
<path class="st3" d="M602.7,144V42.2c0-9.3-4.4-13.5-13.9-13.5H564v21.5h8.2c2.8,0,4.6,1.4,4.6,4.4v101.6c0,9.5,4.1,13.5,13.9,13.5  h24.6v-21.3h-8C604.4,148.4,602.7,146.8,602.7,144z"/>
<path class="st4" d="M688.9,147.8c-26.4,0-47.3-22.2-47.3-49.8c0-29.3,20.5-47.4,46.5-47.4c12.7,0,30.1,4.8,30.1,15.1v7.9h24.4V57.9  c0-24-36.5-31.5-55.1-31.5c-42.1,0-73.7,30.9-73.7,71.6c0,41.6,30.3,74.1,74.8,74.1c37.5,0,58.5-24.2,58.5-24.2L733,129.2  C733,129.2,716.4,147.8,688.9,147.8z"/>
<path class="st4" d="M804.3,66.1c-31.8,0-57.2,22-57.2,53c0,31.2,25.4,53,57.2,53c31.9,0,57.3-21.9,57.3-53  C861.6,88.1,836.2,66.1,804.3,66.1z M804.3,150.6c-16.8,0-31-12.7-31-31.5c0-18.6,14.2-31.5,31-31.5c17,0,31.2,12.9,31.2,31.5  C835.5,137.9,821.3,150.6,804.3,150.6z"/>
<path class="st4" d="M975.7,148.4c-2.8,0-4.6-1.6-4.6-4.4v-39.5c0-26.9-13.3-38.5-36.4-38.5c-21.1,0-32.4,12.6-36.9,21h-0.4  c0.3-1.4,0.3-2.9,0.4-4.4v-2.9c0-7.2-4.6-11.3-13.7-11.3h-23.9v21.5h8.2c2.8,0,4.6,1.4,4.6,4.4v75.4h25.8v-46.5  c-0.1-4.6,0.6-9.1,2.1-13.5c3.7-12.1,14.2-20.7,28-20.7c13.1,0,16.4,8.3,16.4,20.7v46.5c0,9.5,4.1,13.5,14,13.5h24.8v-21.3H975.7z"/>
<path class="st3" d="M344,148.4c-2.8,0-4.6-1.6-4.6-4.4V68.5h-25.9V115c0,18-10.4,34.1-29.4,34.1c-13,0-16.1-8.3-16.1-20.7V81.8  c0-7.9-3.1-12.1-10.2-13.1h-33.6c-5.8,0.7-16.1,3.2-23.4,12.2c-2.8,3.6-5,7.8-6.4,12.2H194c0.3-2.1,0.4-4.2,0.4-6.4v-6  c0-8.6-4.7-12.3-13.9-12.3h-24v7.2c1.3,4.7,2.2,9.5,2.7,14.3h5.5c2.8,0,4.6,1.4,4.6,4.4v75.4h25.8v-40.1c0-5.6,0.7-11,2.2-16.5  c0.8-2.7,1.9-5.2,3.3-7.6c0,0,8.1-15.4,31.4-15.6v-0.1h5.6c2.8,0,4.6,1.4,4.6,4.4v39.3c0,27.6,13.7,38.5,36,38.5  c18,0,31.2-10.5,36-21h0.4c0,0-0.2,2.2-0.2,4.6v2.7c0,7.2,4.7,11.3,13.7,11.3H352v-21.3L344,148.4z"/>
<g>
	<g transform="translate(520.945768, 239.938498)">
	</g>
</g>
<g>
	<path class="st5" d="M42,233h11.5v73.6h36.7V317H42V233z"/>
	<path class="st5" d="M104.9,233h11.5v84h-11.5V233z"/>
	<path class="st5" d="M140.4,233h11.5v73.6h36.7V317h-48.2V233z"/>
	<path class="st5" d="M203.3,233h11.5v73.6h36.7V317h-48.2V233z"/>
	<path class="st5" d="M267,233h58.3v10.4h-46.8v25.9h41.9v10.4h-41.9v26.8h48.2V317H267V233z"/>
	<path class="st5" d="M432.5,301.2V317h-63.1v-13.1l31.1-32c2.8-2.8,5-5.5,6.7-8.2c1.6-2.7,2.5-5,2.5-7c0-2.6-1-4.7-3.1-6.2   c-2-1.5-4.9-2.2-8.5-2.2s-7.4,0.9-11.5,2.8c-4.1,1.8-8,4.4-11.9,7.7l-7.4-14.2c11-8.2,22.2-12.4,33.6-12.4c5.6,0,10.6,0.9,14.9,2.7   s7.7,4.3,10.1,7.6s3.6,7,3.6,11.3c0,4.2-1.4,8.6-4.2,13.2c-2.8,4.6-6.8,9.5-11.9,14.8L394,301.2H432.5z"/>
	<path class="st5" d="M506.1,243.3c6.3,7.4,9.5,17.9,9.5,31.7c0,13.7-3.2,24.2-9.5,31.6s-15.4,11.1-27.1,11.1   c-11.8,0-20.9-3.7-27.3-11.1c-6.4-7.4-9.5-17.9-9.5-31.6c0-13.8,3.2-24.3,9.5-31.7c6.4-7.4,15.5-11,27.3-11   C490.7,232.3,499.7,236,506.1,243.3z M465.8,253.5c-2.8,4.5-4.2,11.6-4.2,21.5c0,9.8,1.4,16.9,4.2,21.4s7.2,6.8,13.2,6.8   c5.8,0,10.2-2.3,13-6.8s4.2-11.7,4.2-21.4c0-9.8-1.4-17-4.2-21.5s-7.1-6.7-13-6.7C473,246.8,468.5,249,465.8,253.5z"/>
	<path class="st5" d="M588.7,301.2V317h-63.1v-13.1l31.1-32c2.8-2.8,5-5.5,6.7-8.2c1.6-2.7,2.5-5,2.5-7c0-2.6-1-4.7-3.1-6.2   c-2-1.5-4.9-2.2-8.5-2.2s-7.4,0.9-11.5,2.8c-4.1,1.8-8,4.4-11.9,7.7l-7.4-14.2c11-8.2,22.2-12.4,33.6-12.4c5.6,0,10.6,0.9,14.9,2.7   c4.3,1.8,7.7,4.3,10.1,7.6s3.6,7,3.6,11.3c0,4.2-1.4,8.6-4.2,13.2s-6.8,9.5-11.9,14.8l-19.3,19.4L588.7,301.2L588.7,301.2z"/>
	<path class="st5" d="M653.2,275.1c4.4,4,6.5,9.2,6.5,15.6c0,5.3-1.4,10-4.1,14.1c-2.8,4.1-6.7,7.3-11.8,9.6   c-5.1,2.3-11,3.4-17.8,3.4c-5.8,0-11.7-0.9-17.5-2.7c-5.8-1.8-10.7-4.2-14.7-7.1l7.3-14c3.4,2.9,7.2,5.1,11.2,6.6s8.1,2.3,12.2,2.3   c5.3,0,9.4-1.1,12.2-3.2c2.9-2.1,4.3-5.1,4.3-8.8c0-3.8-1.4-6.6-4.3-8.6c-2.9-2-7-2.9-12.4-2.9h-13.6v-10.8l21-20.3H598l-0.1-15.4   h57.5v11.4l-24.2,22.8l4.3,0.6C643,268.6,648.9,271.1,653.2,275.1z"/>
</g>
</svg>